<?xml version="1.0" encoding="UTF-8"?>
<svg width="400" height="300" viewBox="0 0 400 300" fill="none" xmlns="http://www.w3.org/2000/svg">
  <!-- Bitcoin symbol -->
  <path d="M200 50L240 70V230L200 250L160 230V70L200 50Z" fill="#FFB700"/>
  
  <!-- Plant stem -->
  <path d="M180 180C180 180 160 200 160 220C160 240 180 250 200 250C220 250 240 240 240 220C240 200 220 180 220 180" stroke="#4CAF50" stroke-width="4"/>
  
  <!-- Leaves -->
  <path d="M170 170C170 170 150 160 140 180C130 200 150 210 170 200" fill="#4CAF50"/>
  <path d="M230 170C230 170 250 160 260 180C270 200 250 210 230 200" fill="#4CAF50"/>
  
  <!-- Small circles -->
  <circle cx="160" cy="160" r="5" fill="#FFB700"/>
  <circle cx="240" cy="160" r="5" fill="#FFB700"/>
  <circle cx="200" cy="140" r="5" fill="#FFB700"/>
  
  <!-- Decorative lines -->
  <path d="M140 100C140 100 180 120 200 120C220 120 260 100 260 100" stroke="#FFB700" stroke-width="2"/>
  <path d="M150 80C150 80 180 100 200 100C220 100 250 80 250 80" stroke="#FFB700" stroke-width="2"/>
</svg> 